M48
;DRILL file {KiCad 4.0.6} date 01/20/18 13:59:59
;FORMAT={-:-/ absolute / inch / decimal}
FMAT,2
INCH,TZ
T1C0.016
T2C0.031
T3C0.039
T4C0.043
%
G90
G05
M72
T1
X0.063Y-0.5059
X0.0669Y-0.4134
X0.1063Y-0.8051
X0.1102Y-0.7244
X0.1122Y-0.9862
X0.1142Y-0.6201
X0.1161Y-1.378
X0.1378Y-1.7697
X0.1398Y-2.1988
X0.1398Y-2.2343
X0.1398Y-2.2736
X0.1398Y-2.3071
X0.1732Y-0.6594
X0.1772Y-0.9941
X0.185Y-0.8031
X0.1988Y-1.7559
X0.2028Y-1.1614
X0.2028Y-1.7264
X0.2106Y-0.4665
X0.2126Y-1.2146
X0.2165Y-1.5512
X0.2441Y-1.7835
X0.252Y-0.9941
X0.2677Y-0.8051
X0.2736Y-2.1161
X0.313Y-0.9941
X0.3209Y-2.1122
X0.3406Y-0.4606
X0.3543Y-1.8642
X0.3661Y-0.6181
X0.3661Y-1.9134
X0.3681Y-1.5512
X0.372Y-1.2165
X0.3858Y-0.9921
X0.4134Y-1.5512
X0.4606Y-0.2638
X0.4646Y-0.0965
X0.4665Y-0.687
X0.4685Y-0.5669
X0.4705Y-0.3701
X0.4803Y-0.9744
X0.4843Y-0.8425
X0.502Y-1.2165
X0.5669Y-1.876
X0.5709Y-2.1142
X0.5886Y-0.0965
X0.5886Y-0.1772
X0.6024Y-2.2303
X0.626Y-1.9055
X0.6437Y-2.0984
X0.6555Y-1.1791
X0.6575Y-0.7205
X0.6575Y-1.0827
X0.6594Y-0.8248
X0.6594Y-0.935
X0.6594Y-1.0256
X0.6634Y-0.2815
X0.6673Y-1.435
X0.6673Y-1.8051
X0.6673Y-1.8445
X0.6752Y-2.2303
X0.7205Y-0.1811
X0.7244Y-0.0965
X0.7283Y-0.935
X0.7283Y-2.1673
X0.7303Y-1.0177
X0.7441Y-0.7224
X0.7461Y-0.8307
X0.748Y-2.2244
X0.7598Y-1.9035
X0.7933Y-2.1752
X0.8031Y-0.3898
X0.813Y-0.2657
X0.8661Y-0.1811
X0.8681Y-0.0984
X0.8917Y-1.6043
X0.8996Y-0.4606
X0.9035Y-0.3799
X0.9134Y-2.1043
X0.9134Y-2.1535
X0.9331Y-0.2657
X0.9882Y-1.687
X0.9882Y-2.0984
X0.9902Y-1.6083
X0.9902Y-1.9232
X0.9961Y-1.4055
X1.Y-1.1949
X1.Y-1.5059
X1.0059Y-0.9646
X1.0059Y-1.0551
X1.0059Y-1.3071
X1.0079Y-0.1811
X1.0079Y-0.9035
X1.0098Y-0.0984
X1.0177Y-0.5453
X1.0217Y-0.4626
X1.0217Y-0.6358
X1.0256Y-0.813
X1.0295Y-0.374
X1.0295Y-0.7283
X1.0315Y-1.9547
X1.0531Y-1.7736
X1.0728Y-0.2657
X1.0965Y-0.8071
X1.0984Y-0.5433
X1.0984Y-0.9685
X1.1004Y-1.5098
X1.1024Y-1.0551
X1.1024Y-1.4016
X1.1024Y-1.6969
X1.1024Y-1.9547
X1.1043Y-1.1969
X1.1043Y-1.6122
X1.1063Y-0.6398
X1.1102Y-1.311
X1.124Y-0.8937
X1.128Y-0.7146
X1.1437Y-0.1811
X1.1457Y-0.0984
X1.1516Y-0.4685
X1.1654Y-1.7618
X1.1713Y-0.8071
X1.1772Y-0.3681
X1.2008Y-0.6339
X1.2028Y-0.2697
X1.2146Y-1.9626
X1.2146Y-2.0079
X1.2323Y-1.061
X1.2362Y-1.1969
X1.2421Y-0.5827
X1.2421Y-0.7087
X1.2421Y-0.7776
X1.2421Y-0.8819
X1.2421Y-0.9547
X1.2421Y-1.687
X1.252Y-1.311
X1.252Y-1.4055
X1.2559Y-1.5098
X1.2559Y-1.6083
X1.2598Y-0.0984
X1.2598Y-0.1811
X1.2776Y-0.4724
X1.2815Y-0.5315
X1.2972Y-0.3681
X1.3012Y-0.2677
X1.3091Y-1.7874
X1.3583Y-1.8445
X1.3622Y-0.5709
X1.372Y-0.4665
X1.376Y-1.126
X1.376Y-1.2283
X1.376Y-1.3661
X1.376Y-1.5984
X1.378Y-0.25
X1.378Y-0.376
X1.378Y-1.0354
X1.378Y-1.7461
X1.3799Y-0.9469
X1.3799Y-1.4764
X1.3839Y-0.0984
X1.3839Y-0.1791
X1.3839Y-0.6831
X1.4252Y-2.0433
X1.4488Y-1.9016
X1.4823Y-1.7835
X1.4882Y-2.0551
X1.4941Y-0.0984
X1.4941Y-1.9803
X1.4961Y-0.1693
T2
X0.5705Y-2.0256
X0.9705Y-2.0256
T3
X0.0618Y-1.8902
X0.0618Y-2.0902
X0.1618Y-1.8902
X0.1618Y-2.0902
X0.4237Y-2.3112
X0.4618Y-1.8902
X0.4618Y-2.0902
X0.5237Y-2.3112
X0.5787Y-0.2799
X0.5787Y-0.3799
X0.5787Y-0.4799
X0.5787Y-0.5799
X0.5787Y-0.6799
X0.5787Y-0.7799
X0.5787Y-0.8799
X0.5787Y-0.9799
X0.5787Y-1.0799
X0.5787Y-1.1799
X0.5787Y-1.2799
X0.5787Y-1.3799
X0.5787Y-1.4799
X0.5787Y-1.5799
X0.5787Y-1.6799
X0.6237Y-2.3112
X0.7237Y-2.3112
X0.8237Y-2.3112
X0.9237Y-2.3112
X1.0237Y-2.3112
X1.1237Y-2.3112
X1.4724Y-0.2799
X1.4724Y-0.3799
X1.4724Y-0.4799
X1.4724Y-0.5799
X1.4724Y-0.6799
X1.4724Y-0.7799
X1.4724Y-0.8799
X1.4724Y-0.9799
X1.4724Y-1.0799
X1.4724Y-1.1799
X1.4724Y-1.2799
X1.4724Y-1.3799
X1.4724Y-1.4799
X1.4724Y-1.5799
X1.4724Y-1.6799
T4
X0.0618Y-0.1307
X0.0618Y-0.3307
X0.1618Y-0.1307
X0.1618Y-0.3307
X0.2618Y-0.1307
X0.2618Y-0.3307
T0
M30
