G04 #@! TF.FileFunction,Legend,Bot*
%FSLAX46Y46*%
G04 Gerber Fmt 4.6, Leading zero omitted, Abs format (unit mm)*
G04 Created by KiCad (PCBNEW 4.0.6) date 01/20/18 13:59:34*
%MOMM*%
%LPD*%
G01*
G04 APERTURE LIST*
%ADD10C,0.100000*%
%ADD11C,0.075000*%
%ADD12C,0.150000*%
G04 APERTURE END LIST*
D10*
D11*
X20769134Y-17953600D02*
G75*
G03X20769134Y-17953600I-1118034J0D01*
G01*
X22151100Y-14953600D02*
G75*
G02X22651100Y-20453600I-2500000J-3000000D01*
G01*
X16651100Y-20453600D02*
G75*
G02X17151100Y-14953600I3000000J2500000D01*
G01*
X11151100Y-8953600D02*
G75*
G03X11151100Y-24953600I8000000J-8000000D01*
G01*
X12651100Y-10453600D02*
G75*
G03X12651100Y-23453600I6500000J-6500000D01*
G01*
X14151100Y-12453600D02*
G75*
G03X14151100Y-22453600I5000000J-5000000D01*
G01*
X15151100Y-13953600D02*
G75*
G03X15651100Y-21453600I4000000J-3500000D01*
G01*
X24151100Y-13953600D02*
G75*
G02X23651100Y-21453600I-4000000J-3500000D01*
G01*
X25151100Y-12453600D02*
G75*
G02X25151100Y-22453600I-5000000J-5000000D01*
G01*
X26651100Y-10453600D02*
G75*
G02X26651100Y-23453600I-6500000J-6500000D01*
G01*
X28151100Y-8953600D02*
G75*
G02X28151100Y-24953600I-8000000J-8000000D01*
G01*
D12*
X151100Y-203600D02*
X39151100Y-203600D01*
X151100Y-59703600D02*
X39151100Y-59703600D01*
X151100Y-59703600D02*
X151100Y-203600D01*
X39151100Y-59703600D02*
X39151100Y-203600D01*
X18959524Y-56611905D02*
X18959524Y-57259524D01*
X18921429Y-57335714D01*
X18883333Y-57373810D01*
X18807143Y-57411905D01*
X18654762Y-57411905D01*
X18578571Y-57373810D01*
X18540476Y-57335714D01*
X18502381Y-57259524D01*
X18502381Y-56611905D01*
X18159524Y-56688095D02*
X18121429Y-56650000D01*
X18045238Y-56611905D01*
X17854762Y-56611905D01*
X17778572Y-56650000D01*
X17740476Y-56688095D01*
X17702381Y-56764286D01*
X17702381Y-56840476D01*
X17740476Y-56954762D01*
X18197619Y-57411905D01*
X17702381Y-57411905D01*
M02*
